HIERARCHY
ROOT Hips
{
	OFFSET -0.001795 -0.223333 0.028219
	CHANNELS 6 Xposition Yposition Zposition Zrotation Yrotation Xrotation 
	JOINT LeftUpLeg
	{
		OFFSET 0.069520 -0.091406 -0.006815
		CHANNELS 3 Zrotation Yrotation Xrotation
		JOINT LeftLeg
		{
			OFFSET 0.034277 -0.375199 -0.004496
			CHANNELS 3 Zrotation Yrotation Xrotation
			JOINT LeftFoot
			{
				OFFSET -0.013596 -0.397961 -0.043693
				CHANNELS 3 Zrotation Yrotation Xrotation
				JOINT LeftToe
				{
					OFFSET 0.026358 -0.055791 0.119288
					CHANNELS 3 Zrotation Yrotation Xrotation
					End Site
					{
						OFFSET 0.000000 0.000000 0.000000
					}
				}
			}
		}
	}
	JOINT RightUpLeg
	{
		OFFSET -0.067670 -0.090522 -0.004320
		CHANNELS 3 Zrotation Yrotation Xrotation
		JOINT RightLeg
		{
			OFFSET -0.038290 -0.382569 -0.008850
			CHANNELS 3 Zrotation Yrotation Xrotation
			JOINT RightFoot
			{
				OFFSET 0.015774 -0.398415 -0.042312
				CHANNELS 3 Zrotation Yrotation Xrotation
				JOINT RightToe
				{
					OFFSET -0.025372 -0.048144 0.123348
					CHANNELS 3 Zrotation Yrotation Xrotation
					End Site
					{
						OFFSET 0.000000 0.000000 0.000000
					}
				}
			}
		}
	}
	JOINT Spine
	{
		OFFSET -0.002533 0.108963 -0.026696
		CHANNELS 3 Zrotation Yrotation Xrotation
		JOINT Spine1
		{
			OFFSET 0.005487 0.135180 0.001092
			CHANNELS 3 Zrotation Yrotation Xrotation
			JOINT Spine2
			{
				OFFSET 0.001457 0.052922 0.025425
				CHANNELS 3 Zrotation Yrotation Xrotation
				JOINT Neck
				{
					OFFSET -0.002778 0.213870 -0.042857
					CHANNELS 3 Zrotation Yrotation Xrotation
					JOINT Head
					{
						OFFSET 0.005152 0.064970 0.051349
						CHANNELS 3 Zrotation Yrotation Xrotation
						End Site
						{
							OFFSET 0.000000 0.000000 0.000000
						}
					}
				}
				JOINT LeftShoulder
				{
					OFFSET 0.078845 0.121749 -0.034090
					CHANNELS 3 Zrotation Yrotation Xrotation
					JOINT LeftArm
					{
						OFFSET 0.090977 0.030469 -0.008868
						CHANNELS 3 Zrotation Yrotation Xrotation
						JOINT LeftForeArm
						{
							OFFSET 0.259612 -0.012772 -0.027456
							CHANNELS 3 Zrotation Yrotation Xrotation
							JOINT LeftHand
							{
								OFFSET 0.249234 0.008986 -0.001171
								CHANNELS 3 Zrotation Yrotation Xrotation
								End Site
								{
									OFFSET 0.000000 0.000000 0.000000
								}
							}
						}
					}
				}
				JOINT RightShoulder
				{
					OFFSET -0.081759 0.118833 -0.038615
					CHANNELS 3 Zrotation Yrotation Xrotation
					JOINT RightArm
					{
						OFFSET -0.096012 0.032551 -0.009143
						CHANNELS 3 Zrotation Yrotation Xrotation
						JOINT RightForeArm
						{
							OFFSET -0.253742 -0.013329 -0.021401
							CHANNELS 3 Zrotation Yrotation Xrotation
							JOINT RightHand
							{
								OFFSET -0.255298 0.007772 -0.005559
								CHANNELS 3 Zrotation Yrotation Xrotation
								End Site
								{
									OFFSET 0.000000 0.000000 0.000000
								}
							}
						}
					}
				}
			}
		}
	}
}
MOTION
Frames: 5
Frame Time: 0.050000
-0.900230 0.859675 -0.424014 -4.928763 73.147127 11.513305 28.264738 -15.136105 -59.825523 -45.808328 4.446583 51.271088 29.725640 47.371908 30.534033 0.000000 0.000000 0.000000 18.392331 -6.574853 -53.917510 -19.536469 0.414623 43.171345 6.657814 14.161747 -5.048180 0.000000 0.000000 0.000000 -9.263439 -16.226369 53.196370 -1.736910 1.264200 -33.700601 6.369164 27.908460 37.772500 12.354533 5.444736 -37.555466 0.000000 0.000000 0.000000 -18.390002 -9.373845 -15.634353 -62.965762 -11.531329 -2.196507 168.342120 -78.236587 179.366722 0.000000 0.000000 0.000000 35.824402 -20.974070 5.402669 54.642080 18.181477 -4.528385 -103.938274 77.716166 -56.397273 0.000000 0.000000 0.000000 
-0.908469 0.857367 -0.421577 -2.287140 73.349358 13.999420 27.730166 -14.777642 -58.119222 -56.154931 7.627092 51.540065 40.808222 51.560455 41.610601 0.000000 0.000000 0.000000 18.392653 -6.940802 -54.580963 -19.702461 0.605380 43.145068 6.346157 13.679936 -5.785410 0.000000 0.000000 0.000000 -8.988212 -16.595245 53.643954 -1.842834 1.171729 -35.069827 6.791069 27.814480 39.356022 13.580755 4.812816 -36.221168 0.000000 0.000000 0.000000 -18.495352 -8.953544 -15.815405 -62.516854 -11.969582 -2.098683 176.879828 -76.846255 169.504969 0.000000 0.000000 0.000000 36.757929 -20.766257 6.002990 53.606567 20.824354 -4.088226 -126.193887 74.245331 -73.715022 0.000000 0.000000 0.000000 
-0.917125 0.856897 -0.420052 -0.932625 73.639001 15.236378 26.080403 -14.294488 -55.372742 -62.833313 9.254982 52.128284 44.220474 52.524428 43.805892 0.000000 0.000000 0.000000 18.074208 -7.237884 -54.577706 -18.465540 0.071426 42.767269 5.369742 11.788927 -6.615726 0.000000 0.000000 0.000000 -8.865599 -17.124043 54.222237 -1.268615 1.243909 -34.645217 6.342238 28.553430 39.172164 13.350641 5.064603 -36.378221 0.000000 0.000000 0.000000 -17.752064 -9.022265 -15.328400 -64.153316 -11.060117 -3.327998 -175.800899 -75.426987 159.762972 0.000000 0.000000 0.000000 36.705871 -20.603559 6.293980 54.497273 23.192766 -2.750141 -136.244372 69.447104 -77.182929 0.000000 0.000000 0.000000 
-0.926233 0.856017 -0.418460 1.404833 75.199579 17.677352 23.532521 -14.389518 -53.250228 -66.918198 10.448086 54.737031 43.853086 53.385576 40.169891 0.000000 0.000000 0.000000 17.876223 -8.481069 -56.230656 -17.916083 -0.386506 44.072578 5.450092 11.984666 -6.586216 0.000000 0.000000 0.000000 -7.944433 -18.096296 54.282825 -2.241650 1.169989 -35.649072 7.503138 27.195903 40.378842 14.059254 4.417645 -34.444705 0.000000 0.000000 0.000000 -15.499987 -7.576438 -14.008284 -67.026868 -10.959826 -5.702081 -172.449049 -72.976312 155.240437 0.000000 0.000000 0.000000 36.161171 -19.958925 6.664016 56.093487 23.695985 -2.071626 -142.235389 64.079234 -75.731537 0.000000 0.000000 0.000000 
-0.936274 0.855107 -0.416634 -1.199767 75.502782 16.678320 26.186821 -13.887805 -53.005702 -72.060072 11.836376 52.007384 46.721852 52.546695 45.451052 0.000000 0.000000 0.000000 20.261825 -7.958204 -57.462672 -18.429798 0.553840 41.751700 5.920144 12.795452 -5.976993 0.000000 0.000000 0.000000 -7.270494 -17.926018 53.389783 -0.475701 0.930004 -37.096625 8.040234 29.008038 43.595924 14.637619 4.930830 -37.704682 0.000000 0.000000 0.000000 -13.544945 -6.354487 -14.323521 -69.823705 -9.833435 -8.441334 -166.023414 -71.066378 146.352733 0.000000 0.000000 0.000000 36.699995 -20.822879 7.246728 57.778198 27.237931 0.038570 -139.091795 61.907234 -67.231634 0.000000 0.000000 0.000000 
